<svg width="1024" height="1024" viewBox="0 0 1024 1024" fill="none" xmlns="http://www.w3.org/2000/svg">
<path d="M131.415 427.839L139.939 418.819L140.51 418.214C140.64 418.077 140.816 418 141 418C141.183 418 141.36 418.077 141.49 418.214L150.585 427.839C150.719 427.98 150.824 428.148 150.895 428.332C150.966 428.517 151.002 428.715 151 428.914C150.991 429.736 150.345 430.392 149.568 430.392H148.631V438H133.369V430.392H132.412C132.035 430.392 131.679 430.236 131.413 429.953C131.281 429.815 131.177 429.65 131.106 429.468C131.035 429.286 130.999 429.092 131 428.895C131 428.498 131.148 428.122 131.415 427.839ZM139.765 436.318H142.235V431.553H139.765V436.318ZM134.958 428.711V436.318H138.353V430.993C138.353 430.477 138.748 430.058 139.235 430.058H142.765C143.252 430.058 143.647 430.477 143.647 430.993V436.318H147.042V428.711H149.16L140.998 420.075L140.488 420.615L132.838 428.711H134.958Z" fill="black"/>
<path d="M168.074 426.276H172.482V427.655H168.074V426.276ZM168.074 422.828H175V424.207H168.074V422.828ZM168.074 419.379H175V420.759H168.074V419.379ZM163.037 438H160.519C160.185 437.999 159.865 437.853 159.629 437.595C159.394 437.336 159.261 436.986 159.26 436.621V431.793C158.926 431.792 158.606 431.646 158.37 431.388C158.134 431.129 158.001 430.779 158 430.414V426.276C157.996 426.003 158.041 425.731 158.135 425.478C158.228 425.225 158.367 424.995 158.543 424.802C158.72 424.608 158.93 424.456 159.161 424.354C159.392 424.252 159.64 424.202 159.889 424.207H163.667C163.916 424.202 164.164 424.252 164.395 424.354C164.626 424.456 164.836 424.608 165.013 424.802C165.189 424.995 165.328 425.225 165.421 425.478C165.515 425.731 165.56 426.003 165.556 426.276V430.414C165.555 430.779 165.422 431.129 165.186 431.388C164.95 431.646 164.63 431.792 164.296 431.793V436.621C164.295 436.986 164.163 437.336 163.927 437.595C163.691 437.853 163.371 437.999 163.037 438ZM159.889 425.586C159.805 425.581 159.721 425.595 159.642 425.627C159.564 425.66 159.492 425.711 159.433 425.776C159.373 425.841 159.327 425.919 159.297 426.006C159.267 426.092 159.255 426.184 159.26 426.276V430.414H160.519V436.621H163.037V430.414H164.296V426.276C164.302 426.184 164.289 426.092 164.259 426.006C164.229 425.919 164.183 425.841 164.123 425.776C164.064 425.711 163.992 425.66 163.914 425.627C163.835 425.595 163.751 425.581 163.667 425.586H159.889ZM161.778 423.517C161.28 423.517 160.793 423.355 160.379 423.052C159.965 422.749 159.642 422.318 159.451 421.814C159.261 421.31 159.211 420.756 159.308 420.22C159.405 419.685 159.645 419.194 159.997 418.808C160.349 418.422 160.798 418.159 161.287 418.053C161.775 417.947 162.282 418.001 162.742 418.21C163.202 418.419 163.595 418.772 163.872 419.226C164.149 419.68 164.296 420.213 164.296 420.759C164.295 421.49 164.029 422.19 163.557 422.707C163.085 423.224 162.445 423.515 161.778 423.517ZM161.778 419.379C161.529 419.379 161.286 419.46 161.078 419.612C160.871 419.763 160.71 419.979 160.615 420.231C160.519 420.483 160.494 420.76 160.543 421.028C160.592 421.295 160.712 421.541 160.888 421.734C161.064 421.927 161.288 422.058 161.532 422.111C161.777 422.165 162.03 422.137 162.26 422.033C162.49 421.929 162.687 421.752 162.825 421.525C162.963 421.298 163.037 421.031 163.037 420.759C163.036 420.393 162.903 420.043 162.667 419.785C162.431 419.526 162.112 419.38 161.778 419.379Z" fill="black"/>
<path d="M200.889 438H183.111C182.816 438 182.534 437.895 182.325 437.707C182.117 437.52 182 437.265 182 437V419C182 418.735 182.117 418.48 182.325 418.293C182.534 418.105 182.816 418 183.111 418H200.889C201.184 418 201.466 418.105 201.675 418.293C201.883 418.48 202 418.735 202 419V437C202 437.265 201.883 437.52 201.675 437.707C201.466 437.895 201.184 438 200.889 438ZM199.778 436V420H184.222V436H199.778ZM186.444 422H190.889V426H186.444V422ZM186.444 428H197.556V430H186.444V428ZM186.444 432H197.556V434H186.444V432ZM193.111 423H197.556V425H193.111V423Z" fill="black"/>
<path d="M224.2 422V418H209V433.2H213L224.2 422ZM213.8 422.8V438H229V422.8H213.8Z" stroke="black" stroke-width="1.5" stroke-linecap="round" stroke-linejoin="round"/>
<path d="M242.364 434.657L237.591 429.642L236 431.313L242.364 438L256 423.672L254.409 422L242.364 434.657Z" fill="black"/>
<path d="M282.775 432.616L280.692 430.749V428.276C280.69 426.567 279.981 424.919 278.702 423.652C277.423 422.384 275.666 421.587 273.769 421.414V420H272.231V421.414C270.334 421.587 268.577 422.384 267.298 423.652C266.019 424.919 265.31 426.567 265.308 428.276V430.749L263.225 432.616C263.081 432.745 263 432.92 263 433.103V435.172C263 435.355 263.081 435.531 263.225 435.66C263.37 435.789 263.565 435.862 263.769 435.862H269.154V436.398C269.137 437.273 269.481 438.122 270.12 438.784C270.759 439.446 271.647 439.873 272.615 439.983C273.15 440.031 273.69 439.977 274.2 439.827C274.711 439.676 275.18 439.431 275.579 439.108C275.977 438.785 276.296 438.39 276.514 437.95C276.732 437.51 276.846 437.033 276.846 436.551V435.862H282.231C282.435 435.862 282.63 435.789 282.775 435.66C282.919 435.531 283 435.355 283 435.172V433.103C283 432.92 282.919 432.745 282.775 432.616ZM275.308 436.551C275.308 437.1 275.065 437.626 274.632 438.014C274.199 438.402 273.612 438.62 273 438.62C272.388 438.62 271.801 438.402 271.368 438.014C270.935 437.626 270.692 437.1 270.692 436.551V435.862H275.308V436.551ZM281.462 434.483H264.538V433.389L266.621 431.522C266.765 431.393 266.846 431.217 266.846 431.034V428.276C266.846 426.812 267.495 425.409 268.649 424.375C269.803 423.34 271.368 422.759 273 422.759C274.632 422.759 276.197 423.34 277.351 424.375C278.505 425.409 279.154 426.812 279.154 428.276V431.034C279.154 431.217 279.235 431.393 279.379 431.522L281.462 433.389V434.483Z" fill="black"/>
<path d="M304.075 420.633C304.395 419.789 305.606 419.789 305.927 420.633L307.997 426.367C308.069 426.554 308.196 426.714 308.361 426.827C308.527 426.94 308.722 427.001 308.923 427H314.01C314.95 427 315.36 428.17 314.621 428.743L311.001 432C310.838 432.125 310.72 432.297 310.662 432.494C310.604 432.69 310.61 432.899 310.679 433.092L312.001 438.695C312.323 439.595 311.281 440.368 310.493 439.814L305.576 436.694C305.407 436.576 305.206 436.512 305.001 436.512C304.795 436.512 304.594 436.576 304.426 436.694L299.509 439.814C298.722 440.368 297.679 439.594 298.001 438.695L299.323 433.092C299.391 432.899 299.397 432.69 299.339 432.494C299.281 432.297 299.163 432.125 299.001 432L295.381 428.743C294.641 428.17 295.053 427 295.991 427H301.078C301.278 427.001 301.474 426.941 301.639 426.827C301.804 426.714 301.931 426.554 302.004 426.367L304.074 420.633H304.075Z" stroke="black" stroke-width="2" stroke-linecap="round" stroke-linejoin="round"/>
<path d="M353.749 436.93C355.185 435.202 356.184 433.154 356.661 430.958C357.138 428.763 357.079 426.484 356.49 424.316C355.9 422.148 354.797 420.154 353.274 418.503C351.75 416.851 349.852 415.591 347.738 414.828C345.625 414.066 343.359 413.823 341.132 414.122C338.905 414.42 336.783 415.25 334.945 416.543C333.107 417.835 331.607 419.55 330.572 421.545C329.537 423.539 328.998 425.753 329 428C329.001 431.266 330.152 434.428 332.251 436.93L332.231 436.947C332.301 437.031 332.381 437.103 332.453 437.186C332.543 437.289 332.64 437.386 332.733 437.486C333.013 437.79 333.301 438.082 333.603 438.356C333.695 438.44 333.79 438.518 333.883 438.598C334.203 438.874 334.532 439.136 334.873 439.38C334.917 439.41 334.957 439.449 335.001 439.48V439.468C337.343 441.116 340.137 442.001 343.001 442.001C345.865 442.001 348.659 441.116 351.001 439.468V439.48C351.045 439.449 351.084 439.41 351.129 439.38C351.469 439.135 351.799 438.874 352.119 438.598C352.212 438.518 352.307 438.439 352.399 438.356C352.701 438.081 352.989 437.79 353.269 437.486C353.362 437.386 353.458 437.289 353.549 437.186C353.62 437.103 353.701 437.031 353.771 436.946L353.749 436.93ZM343 420C343.89 420 344.76 420.264 345.5 420.758C346.24 421.253 346.817 421.956 347.157 422.778C347.498 423.6 347.587 424.505 347.414 425.378C347.24 426.251 346.811 427.053 346.182 427.682C345.553 428.311 344.751 428.74 343.878 428.914C343.005 429.087 342.1 428.998 341.278 428.657C340.456 428.317 339.753 427.74 339.258 427C338.764 426.26 338.5 425.39 338.5 424.5C338.5 423.307 338.974 422.162 339.818 421.318C340.662 420.474 341.807 420 343 420ZM335.007 436.93C335.024 435.617 335.558 434.364 336.492 433.441C337.427 432.518 338.687 432.001 340 432H346C347.313 432.001 348.573 432.518 349.508 433.441C350.442 434.364 350.976 435.617 350.993 436.93C348.8 438.906 345.952 440 343 440C340.048 440 337.2 438.906 335.007 436.93Z" fill="black"/>
</svg>
